# Blender v2.79 (sub 0) OBJ File: ''
# www.blender.org
mtllib conus2.mtl
o Cone
v 0.000000 -1.000000 -1.000000
v 0.281733 -1.000000 -0.959493
v 0.540641 -1.000000 -0.841254
v 0.755750 -1.000000 -0.654861
v 0.909632 -1.000000 -0.415415
v 0.989821 -1.000000 -0.142315
v 0.989821 -1.000000 0.142315
v 0.909632 -1.000000 0.415415
v 0.755749 -1.000000 0.654861
v 0.540641 -1.000000 0.841254
v 0.281733 -1.000000 0.959493
v 0.000000 1.000000 0.000000
v 0.000000 -1.000000 1.000000
v -0.281732 -1.000000 0.959493
v -0.540641 -1.000000 0.841254
v -0.755749 -1.000000 0.654861
v -0.909632 -1.000000 0.415416
v -0.989821 -1.000000 0.142315
v -0.989822 -1.000000 -0.142314
v -0.909632 -1.000000 -0.415414
v -0.755750 -1.000000 -0.654860
v -0.540642 -1.000000 -0.841253
v -0.281734 -1.000000 -0.959493
vt 0.500000 0.000000
vt 0.500000 1.000000
vt 0.570433 0.000000
vt 0.635160 0.000000
vt 0.688937 0.000000
vt 0.663715 0.000000
vt 0.603854 0.000000
vt 0.535579 0.000000
vt 0.464421 0.000000
vt 0.396146 0.000000
vt 0.336285 0.000000
vt 0.688937 0.000000
vt 0.635160 0.000000
vt 0.570433 0.000000
vt 0.500000 0.000000
vt 0.429567 0.000000
vt 0.364840 0.000000
vt 0.311063 0.000000
vt 0.336285 0.000000
vt 0.396146 0.000000
vt 0.464421 0.000000
vt 0.535578 0.000000
vt 0.603854 0.000000
vt 0.663715 0.000000
vt 0.311062 0.000000
vt 0.364840 0.000000
vt 0.429567 0.000000
vt 0.570433 0.020254
vt 0.635160 0.079373
vt 0.688937 0.172570
vt 0.727408 0.292293
vt 0.747455 0.428843
vt 0.747455 0.571157
vt 0.727408 0.707708
vt 0.688937 0.827430
vt 0.635160 0.920627
vt 0.570433 0.979746
vt 0.500000 1.000000
vt 0.429567 0.979747
vt 0.364840 0.920627
vt 0.311063 0.827431
vt 0.272592 0.707708
vt 0.252545 0.571158
vt 0.252545 0.428843
vt 0.272592 0.292293
vt 0.311062 0.172570
vt 0.364840 0.079373
vt 0.429567 0.020254
vn 0.1275 0.4436 -0.8871
vn 0.3723 0.4436 -0.8153
vn 0.5869 0.4436 -0.6773
vn 0.7540 0.4436 -0.4845
vn 0.8599 0.4436 -0.2525
vn 0.8962 0.4436 0.0000
vn 0.8599 0.4436 0.2525
vn 0.7540 0.4436 0.4845
vn 0.5869 0.4436 0.6773
vn 0.3723 0.4436 0.8153
vn 0.1275 0.4436 0.8871
vn -0.1275 0.4436 0.8871
vn -0.3723 0.4436 0.8153
vn -0.5869 0.4436 0.6773
vn -0.7540 0.4436 0.4845
vn -0.8599 0.4436 0.2525
vn -0.8962 0.4436 0.0000
vn -0.8599 0.4436 -0.2525
vn -0.7540 0.4436 -0.4845
vn -0.5869 0.4436 -0.6773
vn -0.3723 0.4436 -0.8153
vn -0.1275 0.4436 -0.8871
vn 0.0000 -1.0000 0.0000
usemtl None
s off
f 1/1/1 12/2/1 2/3/1
f 2/3/2 12/2/2 3/4/2
f 3/4/3 12/2/3 4/5/3
f 4/6/4 12/2/4 5/7/4
f 5/7/5 12/2/5 6/8/5
f 6/8/6 12/2/6 7/9/6
f 7/9/7 12/2/7 8/10/7
f 8/10/8 12/2/8 9/11/8
f 9/12/9 12/2/9 10/13/9
f 10/13/10 12/2/10 11/14/10
f 11/14/11 12/2/11 13/15/11
f 13/15/12 12/2/12 14/16/12
f 14/16/13 12/2/13 15/17/13
f 15/17/14 12/2/14 16/18/14
f 16/19/15 12/2/15 17/20/15
f 17/20/16 12/2/16 18/21/16
f 18/21/17 12/2/17 19/22/17
f 19/22/18 12/2/18 20/23/18
f 20/23/19 12/2/19 21/24/19
f 21/25/20 12/2/20 22/26/20
f 22/26/21 12/2/21 23/27/21
f 23/27/22 12/2/22 1/1/22

f 1/1/23 2/28/23 3/29/23 4/30/23 5/31/23 6/32/23 7/33/23 8/34/23 9/35/23 10/36/23 11/37/23 13/38/23 14/39/23 15/40/23 16/41/23 17/42/23 18/43/23 19/44/23 20/45/23 21/46/23 22/47/23 23/48/23
